<?xml version="1.0" encoding="utf-8" standalone="no"?>
<!DOCTYPE svg PUBLIC "-//W3C//DTD SVG 1.1//EN"
  "http://www.w3.org/Graphics/SVG/1.1/DTD/svg11.dtd">
<!-- Created with matplotlib (https://matplotlib.org/) -->
<svg height="504pt" version="1.1" viewBox="0 0 720 504" width="720pt" xmlns="http://www.w3.org/2000/svg" xmlns:xlink="http://www.w3.org/1999/xlink">
 <defs>
  <style type="text/css">
*{stroke-linecap:butt;stroke-linejoin:round;}
  </style>
 </defs>
 <g id="figure_1">
  <g id="patch_1">
   <path d="M 0 504 
L 720 504 
L 720 0 
L 0 0 
z
" style="fill:#ffffff;"/>
  </g>
  <g id="axes_1">
   <g id="patch_2">
    <path d="M 90 448.56 
L 648 448.56 
L 648 60.48 
L 90 60.48 
z
" style="fill:#bf00bf;"/>
   </g>
   <g id="matplotlib.axis_1">
    <g id="xtick_1">
     <g id="line2d_1">
      <path clip-path="url(#p1fbda56c2f)" d="M 111.893409 448.56 
L 111.893409 60.48 
" style="fill:none;stroke:#ffffff;stroke-linecap:square;stroke-width:0.8;"/>
     </g>
     <g id="line2d_2">
      <defs>
       <path d="M 0 0 
L 0 3.5 
" id="ma5c1ad2ced" style="stroke:#555555;stroke-width:0.8;"/>
      </defs>
      <g>
       <use style="fill:#555555;stroke:#555555;stroke-width:0.8;" x="111.893409" xlink:href="#ma5c1ad2ced" y="448.56"/>
      </g>
     </g>
     <g id="text_1">
      <!-- −0.8 -->
      <defs>
       <path d="M 10.59375 35.5 
L 73.1875 35.5 
L 73.1875 27.203125 
L 10.59375 27.203125 
z
" id="DejaVuSans-8722"/>
       <path d="M 31.78125 66.40625 
Q 24.171875 66.40625 20.328125 58.90625 
Q 16.5 51.421875 16.5 36.375 
Q 16.5 21.390625 20.328125 13.890625 
Q 24.171875 6.390625 31.78125 6.390625 
Q 39.453125 6.390625 43.28125 13.890625 
Q 47.125 21.390625 47.125 36.375 
Q 47.125 51.421875 43.28125 58.90625 
Q 39.453125 66.40625 31.78125 66.40625 
z
M 31.78125 74.21875 
Q 44.046875 74.21875 50.515625 64.515625 
Q 56.984375 54.828125 56.984375 36.375 
Q 56.984375 17.96875 50.515625 8.265625 
Q 44.046875 -1.421875 31.78125 -1.421875 
Q 19.53125 -1.421875 13.0625 8.265625 
Q 6.59375 17.96875 6.59375 36.375 
Q 6.59375 54.828125 13.0625 64.515625 
Q 19.53125 74.21875 31.78125 74.21875 
z
" id="DejaVuSans-48"/>
       <path d="M 10.6875 12.40625 
L 21 12.40625 
L 21 0 
L 10.6875 0 
z
" id="DejaVuSans-46"/>
       <path d="M 31.78125 34.625 
Q 24.75 34.625 20.71875 30.859375 
Q 16.703125 27.09375 16.703125 20.515625 
Q 16.703125 13.921875 20.71875 10.15625 
Q 24.75 6.390625 31.78125 6.390625 
Q 38.8125 6.390625 42.859375 10.171875 
Q 46.921875 13.96875 46.921875 20.515625 
Q 46.921875 27.09375 42.890625 30.859375 
Q 38.875 34.625 31.78125 34.625 
z
M 21.921875 38.8125 
Q 15.578125 40.375 12.03125 44.71875 
Q 8.5 49.078125 8.5 55.328125 
Q 8.5 64.0625 14.71875 69.140625 
Q 20.953125 74.21875 31.78125 74.21875 
Q 42.671875 74.21875 48.875 69.140625 
Q 55.078125 64.0625 55.078125 55.328125 
Q 55.078125 49.078125 51.53125 44.71875 
Q 48 40.375 41.703125 38.8125 
Q 48.828125 37.15625 52.796875 32.3125 
Q 56.78125 27.484375 56.78125 20.515625 
Q 56.78125 9.90625 50.3125 4.234375 
Q 43.84375 -1.421875 31.78125 -1.421875 
Q 19.734375 -1.421875 13.25 4.234375 
Q 6.78125 9.90625 6.78125 20.515625 
Q 6.78125 27.484375 10.78125 32.3125 
Q 14.796875 37.15625 21.921875 38.8125 
z
M 18.3125 54.390625 
Q 18.3125 48.734375 21.84375 45.5625 
Q 25.390625 42.390625 31.78125 42.390625 
Q 38.140625 42.390625 41.71875 45.5625 
Q 45.3125 48.734375 45.3125 54.390625 
Q 45.3125 60.0625 41.71875 63.234375 
Q 38.140625 66.40625 31.78125 66.40625 
Q 25.390625 66.40625 21.84375 63.234375 
Q 18.3125 60.0625 18.3125 54.390625 
z
" id="DejaVuSans-56"/>
      </defs>
      <g style="fill:#555555;" transform="translate(99.752002 463.158437)scale(0.1 -0.1)">
       <use xlink:href="#DejaVuSans-8722"/>
       <use x="83.789062" xlink:href="#DejaVuSans-48"/>
       <use x="147.412109" xlink:href="#DejaVuSans-46"/>
       <use x="179.199219" xlink:href="#DejaVuSans-56"/>
      </g>
     </g>
    </g>
    <g id="xtick_2">
     <g id="line2d_3">
      <path clip-path="url(#p1fbda56c2f)" d="M 180.442341 448.56 
L 180.442341 60.48 
" style="fill:none;stroke:#ffffff;stroke-linecap:square;stroke-width:0.8;"/>
     </g>
     <g id="line2d_4">
      <g>
       <use style="fill:#555555;stroke:#555555;stroke-width:0.8;" x="180.442341" xlink:href="#ma5c1ad2ced" y="448.56"/>
      </g>
     </g>
     <g id="text_2">
      <!-- −0.6 -->
      <defs>
       <path d="M 33.015625 40.375 
Q 26.375 40.375 22.484375 35.828125 
Q 18.609375 31.296875 18.609375 23.390625 
Q 18.609375 15.53125 22.484375 10.953125 
Q 26.375 6.390625 33.015625 6.390625 
Q 39.65625 6.390625 43.53125 10.953125 
Q 47.40625 15.53125 47.40625 23.390625 
Q 47.40625 31.296875 43.53125 35.828125 
Q 39.65625 40.375 33.015625 40.375 
z
M 52.59375 71.296875 
L 52.59375 62.3125 
Q 48.875 64.0625 45.09375 64.984375 
Q 41.3125 65.921875 37.59375 65.921875 
Q 27.828125 65.921875 22.671875 59.328125 
Q 17.53125 52.734375 16.796875 39.40625 
Q 19.671875 43.65625 24.015625 45.921875 
Q 28.375 48.1875 33.59375 48.1875 
Q 44.578125 48.1875 50.953125 41.515625 
Q 57.328125 34.859375 57.328125 23.390625 
Q 57.328125 12.15625 50.6875 5.359375 
Q 44.046875 -1.421875 33.015625 -1.421875 
Q 20.359375 -1.421875 13.671875 8.265625 
Q 6.984375 17.96875 6.984375 36.375 
Q 6.984375 53.65625 15.1875 63.9375 
Q 23.390625 74.21875 37.203125 74.21875 
Q 40.921875 74.21875 44.703125 73.484375 
Q 48.484375 72.75 52.59375 71.296875 
z
" id="DejaVuSans-54"/>
      </defs>
      <g style="fill:#555555;" transform="translate(168.300934 463.158437)scale(0.1 -0.1)">
       <use xlink:href="#DejaVuSans-8722"/>
       <use x="83.789062" xlink:href="#DejaVuSans-48"/>
       <use x="147.412109" xlink:href="#DejaVuSans-46"/>
       <use x="179.199219" xlink:href="#DejaVuSans-54"/>
      </g>
     </g>
    </g>
    <g id="xtick_3">
     <g id="line2d_5">
      <path clip-path="url(#p1fbda56c2f)" d="M 248.991273 448.56 
L 248.991273 60.48 
" style="fill:none;stroke:#ffffff;stroke-linecap:square;stroke-width:0.8;"/>
     </g>
     <g id="line2d_6">
      <g>
       <use style="fill:#555555;stroke:#555555;stroke-width:0.8;" x="248.991273" xlink:href="#ma5c1ad2ced" y="448.56"/>
      </g>
     </g>
     <g id="text_3">
      <!-- −0.4 -->
      <defs>
       <path d="M 37.796875 64.3125 
L 12.890625 25.390625 
L 37.796875 25.390625 
z
M 35.203125 72.90625 
L 47.609375 72.90625 
L 47.609375 25.390625 
L 58.015625 25.390625 
L 58.015625 17.1875 
L 47.609375 17.1875 
L 47.609375 0 
L 37.796875 0 
L 37.796875 17.1875 
L 4.890625 17.1875 
L 4.890625 26.703125 
z
" id="DejaVuSans-52"/>
      </defs>
      <g style="fill:#555555;" transform="translate(236.849866 463.158437)scale(0.1 -0.1)">
       <use xlink:href="#DejaVuSans-8722"/>
       <use x="83.789062" xlink:href="#DejaVuSans-48"/>
       <use x="147.412109" xlink:href="#DejaVuSans-46"/>
       <use x="179.199219" xlink:href="#DejaVuSans-52"/>
      </g>
     </g>
    </g>
    <g id="xtick_4">
     <g id="line2d_7">
      <path clip-path="url(#p1fbda56c2f)" d="M 317.540205 448.56 
L 317.540205 60.48 
" style="fill:none;stroke:#ffffff;stroke-linecap:square;stroke-width:0.8;"/>
     </g>
     <g id="line2d_8">
      <g>
       <use style="fill:#555555;stroke:#555555;stroke-width:0.8;" x="317.540205" xlink:href="#ma5c1ad2ced" y="448.56"/>
      </g>
     </g>
     <g id="text_4">
      <!-- −0.2 -->
      <defs>
       <path d="M 19.1875 8.296875 
L 53.609375 8.296875 
L 53.609375 0 
L 7.328125 0 
L 7.328125 8.296875 
Q 12.9375 14.109375 22.625 23.890625 
Q 32.328125 33.6875 34.8125 36.53125 
Q 39.546875 41.84375 41.421875 45.53125 
Q 43.3125 49.21875 43.3125 52.78125 
Q 43.3125 58.59375 39.234375 62.25 
Q 35.15625 65.921875 28.609375 65.921875 
Q 23.96875 65.921875 18.8125 64.3125 
Q 13.671875 62.703125 7.8125 59.421875 
L 7.8125 69.390625 
Q 13.765625 71.78125 18.9375 73 
Q 24.125 74.21875 28.421875 74.21875 
Q 39.75 74.21875 46.484375 68.546875 
Q 53.21875 62.890625 53.21875 53.421875 
Q 53.21875 48.921875 51.53125 44.890625 
Q 49.859375 40.875 45.40625 35.40625 
Q 44.1875 33.984375 37.640625 27.21875 
Q 31.109375 20.453125 19.1875 8.296875 
z
" id="DejaVuSans-50"/>
      </defs>
      <g style="fill:#555555;" transform="translate(305.398798 463.158437)scale(0.1 -0.1)">
       <use xlink:href="#DejaVuSans-8722"/>
       <use x="83.789062" xlink:href="#DejaVuSans-48"/>
       <use x="147.412109" xlink:href="#DejaVuSans-46"/>
       <use x="179.199219" xlink:href="#DejaVuSans-50"/>
      </g>
     </g>
    </g>
    <g id="xtick_5">
     <g id="line2d_9">
      <path clip-path="url(#p1fbda56c2f)" d="M 386.089137 448.56 
L 386.089137 60.48 
" style="fill:none;stroke:#ffffff;stroke-linecap:square;stroke-width:0.8;"/>
     </g>
     <g id="line2d_10">
      <g>
       <use style="fill:#555555;stroke:#555555;stroke-width:0.8;" x="386.089137" xlink:href="#ma5c1ad2ced" y="448.56"/>
      </g>
     </g>
     <g id="text_5">
      <!-- 0.0 -->
      <g style="fill:#555555;" transform="translate(378.137574 463.158437)scale(0.1 -0.1)">
       <use xlink:href="#DejaVuSans-48"/>
       <use x="63.623047" xlink:href="#DejaVuSans-46"/>
       <use x="95.410156" xlink:href="#DejaVuSans-48"/>
      </g>
     </g>
    </g>
    <g id="xtick_6">
     <g id="line2d_11">
      <path clip-path="url(#p1fbda56c2f)" d="M 454.638069 448.56 
L 454.638069 60.48 
" style="fill:none;stroke:#ffffff;stroke-linecap:square;stroke-width:0.8;"/>
     </g>
     <g id="line2d_12">
      <g>
       <use style="fill:#555555;stroke:#555555;stroke-width:0.8;" x="454.638069" xlink:href="#ma5c1ad2ced" y="448.56"/>
      </g>
     </g>
     <g id="text_6">
      <!-- 0.2 -->
      <g style="fill:#555555;" transform="translate(446.686506 463.158437)scale(0.1 -0.1)">
       <use xlink:href="#DejaVuSans-48"/>
       <use x="63.623047" xlink:href="#DejaVuSans-46"/>
       <use x="95.410156" xlink:href="#DejaVuSans-50"/>
      </g>
     </g>
    </g>
    <g id="xtick_7">
     <g id="line2d_13">
      <path clip-path="url(#p1fbda56c2f)" d="M 523.187001 448.56 
L 523.187001 60.48 
" style="fill:none;stroke:#ffffff;stroke-linecap:square;stroke-width:0.8;"/>
     </g>
     <g id="line2d_14">
      <g>
       <use style="fill:#555555;stroke:#555555;stroke-width:0.8;" x="523.187001" xlink:href="#ma5c1ad2ced" y="448.56"/>
      </g>
     </g>
     <g id="text_7">
      <!-- 0.4 -->
      <g style="fill:#555555;" transform="translate(515.235438 463.158437)scale(0.1 -0.1)">
       <use xlink:href="#DejaVuSans-48"/>
       <use x="63.623047" xlink:href="#DejaVuSans-46"/>
       <use x="95.410156" xlink:href="#DejaVuSans-52"/>
      </g>
     </g>
    </g>
    <g id="xtick_8">
     <g id="line2d_15">
      <path clip-path="url(#p1fbda56c2f)" d="M 591.735933 448.56 
L 591.735933 60.48 
" style="fill:none;stroke:#ffffff;stroke-linecap:square;stroke-width:0.8;"/>
     </g>
     <g id="line2d_16">
      <g>
       <use style="fill:#555555;stroke:#555555;stroke-width:0.8;" x="591.735933" xlink:href="#ma5c1ad2ced" y="448.56"/>
      </g>
     </g>
     <g id="text_8">
      <!-- 0.6 -->
      <g style="fill:#555555;" transform="translate(583.78437 463.158437)scale(0.1 -0.1)">
       <use xlink:href="#DejaVuSans-48"/>
       <use x="63.623047" xlink:href="#DejaVuSans-46"/>
       <use x="95.410156" xlink:href="#DejaVuSans-54"/>
      </g>
     </g>
    </g>
   </g>
   <g id="matplotlib.axis_2">
    <g id="ytick_1">
     <g id="line2d_17">
      <path clip-path="url(#p1fbda56c2f)" d="M 90 413.287467 
L 648 413.287467 
" style="fill:none;stroke:#ffffff;stroke-linecap:square;stroke-width:0.8;"/>
     </g>
     <g id="line2d_18">
      <defs>
       <path d="M 0 0 
L -3.5 0 
" id="m8ade64a6f8" style="stroke:#555555;stroke-width:0.8;"/>
      </defs>
      <g>
       <use style="fill:#555555;stroke:#555555;stroke-width:0.8;" x="90" xlink:href="#m8ade64a6f8" y="413.287467"/>
      </g>
     </g>
     <g id="text_9">
      <!-- −1.0 -->
      <defs>
       <path d="M 12.40625 8.296875 
L 28.515625 8.296875 
L 28.515625 63.921875 
L 10.984375 60.40625 
L 10.984375 69.390625 
L 28.421875 72.90625 
L 38.28125 72.90625 
L 38.28125 8.296875 
L 54.390625 8.296875 
L 54.390625 0 
L 12.40625 0 
z
" id="DejaVuSans-49"/>
      </defs>
      <g style="fill:#555555;" transform="translate(58.717187 417.086686)scale(0.1 -0.1)">
       <use xlink:href="#DejaVuSans-8722"/>
       <use x="83.789062" xlink:href="#DejaVuSans-49"/>
       <use x="147.412109" xlink:href="#DejaVuSans-46"/>
       <use x="179.199219" xlink:href="#DejaVuSans-48"/>
      </g>
     </g>
    </g>
    <g id="ytick_2">
     <g id="line2d_19">
      <path clip-path="url(#p1fbda56c2f)" d="M 90 338.619144 
L 648 338.619144 
" style="fill:none;stroke:#ffffff;stroke-linecap:square;stroke-width:0.8;"/>
     </g>
     <g id="line2d_20">
      <g>
       <use style="fill:#555555;stroke:#555555;stroke-width:0.8;" x="90" xlink:href="#m8ade64a6f8" y="338.619144"/>
      </g>
     </g>
     <g id="text_10">
      <!-- −0.5 -->
      <defs>
       <path d="M 10.796875 72.90625 
L 49.515625 72.90625 
L 49.515625 64.59375 
L 19.828125 64.59375 
L 19.828125 46.734375 
Q 21.96875 47.46875 24.109375 47.828125 
Q 26.265625 48.1875 28.421875 48.1875 
Q 40.625 48.1875 47.75 41.5 
Q 54.890625 34.8125 54.890625 23.390625 
Q 54.890625 11.625 47.5625 5.09375 
Q 40.234375 -1.421875 26.90625 -1.421875 
Q 22.3125 -1.421875 17.546875 -0.640625 
Q 12.796875 0.140625 7.71875 1.703125 
L 7.71875 11.625 
Q 12.109375 9.234375 16.796875 8.0625 
Q 21.484375 6.890625 26.703125 6.890625 
Q 35.15625 6.890625 40.078125 11.328125 
Q 45.015625 15.765625 45.015625 23.390625 
Q 45.015625 31 40.078125 35.4375 
Q 35.15625 39.890625 26.703125 39.890625 
Q 22.75 39.890625 18.8125 39.015625 
Q 14.890625 38.140625 10.796875 36.28125 
z
" id="DejaVuSans-53"/>
      </defs>
      <g style="fill:#555555;" transform="translate(58.717187 342.418362)scale(0.1 -0.1)">
       <use xlink:href="#DejaVuSans-8722"/>
       <use x="83.789062" xlink:href="#DejaVuSans-48"/>
       <use x="147.412109" xlink:href="#DejaVuSans-46"/>
       <use x="179.199219" xlink:href="#DejaVuSans-53"/>
      </g>
     </g>
    </g>
    <g id="ytick_3">
     <g id="line2d_21">
      <path clip-path="url(#p1fbda56c2f)" d="M 90 263.95082 
L 648 263.95082 
" style="fill:none;stroke:#ffffff;stroke-linecap:square;stroke-width:0.8;"/>
     </g>
     <g id="line2d_22">
      <g>
       <use style="fill:#555555;stroke:#555555;stroke-width:0.8;" x="90" xlink:href="#m8ade64a6f8" y="263.95082"/>
      </g>
     </g>
     <g id="text_11">
      <!-- 0.0 -->
      <g style="fill:#555555;" transform="translate(67.096875 267.750039)scale(0.1 -0.1)">
       <use xlink:href="#DejaVuSans-48"/>
       <use x="63.623047" xlink:href="#DejaVuSans-46"/>
       <use x="95.410156" xlink:href="#DejaVuSans-48"/>
      </g>
     </g>
    </g>
    <g id="ytick_4">
     <g id="line2d_23">
      <path clip-path="url(#p1fbda56c2f)" d="M 90 189.282497 
L 648 189.282497 
" style="fill:none;stroke:#ffffff;stroke-linecap:square;stroke-width:0.8;"/>
     </g>
     <g id="line2d_24">
      <g>
       <use style="fill:#555555;stroke:#555555;stroke-width:0.8;" x="90" xlink:href="#m8ade64a6f8" y="189.282497"/>
      </g>
     </g>
     <g id="text_12">
      <!-- 0.5 -->
      <g style="fill:#555555;" transform="translate(67.096875 193.081716)scale(0.1 -0.1)">
       <use xlink:href="#DejaVuSans-48"/>
       <use x="63.623047" xlink:href="#DejaVuSans-46"/>
       <use x="95.410156" xlink:href="#DejaVuSans-53"/>
      </g>
     </g>
    </g>
    <g id="ytick_5">
     <g id="line2d_25">
      <path clip-path="url(#p1fbda56c2f)" d="M 90 114.614174 
L 648 114.614174 
" style="fill:none;stroke:#ffffff;stroke-linecap:square;stroke-width:0.8;"/>
     </g>
     <g id="line2d_26">
      <g>
       <use style="fill:#555555;stroke:#555555;stroke-width:0.8;" x="90" xlink:href="#m8ade64a6f8" y="114.614174"/>
      </g>
     </g>
     <g id="text_13">
      <!-- 1.0 -->
      <g style="fill:#555555;" transform="translate(67.096875 118.413393)scale(0.1 -0.1)">
       <use xlink:href="#DejaVuSans-49"/>
       <use x="63.623047" xlink:href="#DejaVuSans-46"/>
       <use x="95.410156" xlink:href="#DejaVuSans-48"/>
      </g>
     </g>
    </g>
   </g>
   <g id="PathCollection_1">
    <defs>
     <path d="M 0 1.581139 
C 0.419323 1.581139 0.821528 1.41454 1.118034 1.118034 
C 1.41454 0.821528 1.581139 0.419323 1.581139 0 
C 1.581139 -0.419323 1.41454 -0.821528 1.118034 -1.118034 
C 0.821528 -1.41454 0.419323 -1.581139 0 -1.581139 
C -0.419323 -1.581139 -0.821528 -1.41454 -1.118034 -1.118034 
C -1.41454 -0.821528 -1.581139 -0.419323 -1.581139 0 
C -1.581139 0.419323 -1.41454 0.821528 -1.118034 1.118034 
C -0.821528 1.41454 -0.419323 1.581139 0 1.581139 
z
" id="m354df17e70" style="stroke:#242424;stroke-width:0.5;"/>
    </defs>
    <g clip-path="url(#p1fbda56c2f)">
     <use style="fill:#242424;stroke:#242424;stroke-width:0.5;" x="385.808627" xlink:href="#m354df17e70" y="261.446466"/>
    </g>
   </g>
   <g id="PathCollection_2">
    <defs>
     <path d="M 0 1.581139 
C 0.419323 1.581139 0.821528 1.41454 1.118034 1.118034 
C 1.41454 0.821528 1.581139 0.419323 1.581139 0 
C 1.581139 -0.419323 1.41454 -0.821528 1.118034 -1.118034 
C 0.821528 -1.41454 0.419323 -1.581139 0 -1.581139 
C -0.419323 -1.581139 -0.821528 -1.41454 -1.118034 -1.118034 
C -1.41454 -0.821528 -1.581139 -0.419323 -1.581139 0 
C -1.581139 0.419323 -1.41454 0.821528 -1.118034 1.118034 
C -0.821528 1.41454 -0.419323 1.581139 0 1.581139 
z
" id="m1e37259637" style="stroke:#494949;stroke-width:0.5;"/>
    </defs>
    <g clip-path="url(#p1fbda56c2f)">
     <use style="fill:#494949;stroke:#494949;stroke-width:0.5;" x="381.965262" xlink:href="#m1e37259637" y="262.734033"/>
     <use style="fill:#494949;stroke:#494949;stroke-width:0.5;" x="381.359416" xlink:href="#m1e37259637" y="262.690016"/>
    </g>
   </g>
   <g id="PathCollection_3">
    <defs>
     <path d="M 0 1.581139 
C 0.419323 1.581139 0.821528 1.41454 1.118034 1.118034 
C 1.41454 0.821528 1.581139 0.419323 1.581139 0 
C 1.581139 -0.419323 1.41454 -0.821528 1.118034 -1.118034 
C 0.821528 -1.41454 0.419323 -1.581139 0 -1.581139 
C -0.419323 -1.581139 -0.821528 -1.41454 -1.118034 -1.118034 
C -1.41454 -0.821528 -1.581139 -0.419323 -1.581139 0 
C -1.581139 0.419323 -1.41454 0.821528 -1.118034 1.118034 
C -0.821528 1.41454 -0.419323 1.581139 0 1.581139 
z
" id="me48a1e0d9e" style="stroke:#6d6d6d;stroke-width:0.5;"/>
    </defs>
    <g clip-path="url(#p1fbda56c2f)">
     <use style="fill:#6d6d6d;stroke:#6d6d6d;stroke-width:0.5;" x="384.620606" xlink:href="#me48a1e0d9e" y="263.718761"/>
     <use style="fill:#6d6d6d;stroke:#6d6d6d;stroke-width:0.5;" x="392.416773" xlink:href="#me48a1e0d9e" y="262.254317"/>
     <use style="fill:#6d6d6d;stroke:#6d6d6d;stroke-width:0.5;" x="379.993499" xlink:href="#me48a1e0d9e" y="259.287396"/>
     <use style="fill:#6d6d6d;stroke:#6d6d6d;stroke-width:0.5;" x="388.009952" xlink:href="#me48a1e0d9e" y="262.31675"/>
    </g>
   </g>
   <g id="PathCollection_4">
    <defs>
     <path d="M 0 1.581139 
C 0.419323 1.581139 0.821528 1.41454 1.118034 1.118034 
C 1.41454 0.821528 1.581139 0.419323 1.581139 0 
C 1.581139 -0.419323 1.41454 -0.821528 1.118034 -1.118034 
C 0.821528 -1.41454 0.419323 -1.581139 0 -1.581139 
C -0.419323 -1.581139 -0.821528 -1.41454 -1.118034 -1.118034 
C -1.41454 -0.821528 -1.581139 -0.419323 -1.581139 0 
C -1.581139 0.419323 -1.41454 0.821528 -1.118034 1.118034 
C -0.821528 1.41454 -0.419323 1.581139 0 1.581139 
z
" id="mb594ef03fc" style="stroke:#929292;stroke-width:0.5;"/>
    </defs>
    <g clip-path="url(#p1fbda56c2f)">
     <use style="fill:#929292;stroke:#929292;stroke-width:0.5;" x="381.877544" xlink:href="#mb594ef03fc" y="266.374385"/>
     <use style="fill:#929292;stroke:#929292;stroke-width:0.5;" x="380.534819" xlink:href="#mb594ef03fc" y="265.736148"/>
     <use style="fill:#929292;stroke:#929292;stroke-width:0.5;" x="410.431774" xlink:href="#mb594ef03fc" y="262.426722"/>
     <use style="fill:#929292;stroke:#929292;stroke-width:0.5;" x="386.523277" xlink:href="#mb594ef03fc" y="267.942938"/>
     <use style="fill:#929292;stroke:#929292;stroke-width:0.5;" x="378.578568" xlink:href="#mb594ef03fc" y="262.438192"/>
     <use style="fill:#929292;stroke:#929292;stroke-width:0.5;" x="408.707429" xlink:href="#mb594ef03fc" y="255.894052"/>
     <use style="fill:#929292;stroke:#929292;stroke-width:0.5;" x="382.304549" xlink:href="#mb594ef03fc" y="262.513439"/>
     <use style="fill:#929292;stroke:#929292;stroke-width:0.5;" x="393.999427" xlink:href="#mb594ef03fc" y="239.459516"/>
    </g>
   </g>
   <g id="PathCollection_5">
    <defs>
     <path d="M 0 1.581139 
C 0.419323 1.581139 0.821528 1.41454 1.118034 1.118034 
C 1.41454 0.821528 1.581139 0.419323 1.581139 0 
C 1.581139 -0.419323 1.41454 -0.821528 1.118034 -1.118034 
C 0.821528 -1.41454 0.419323 -1.581139 0 -1.581139 
C -0.419323 -1.581139 -0.821528 -1.41454 -1.118034 -1.118034 
C -1.41454 -0.821528 -1.581139 -0.419323 -1.581139 0 
C -1.581139 0.419323 -1.41454 0.821528 -1.118034 1.118034 
C -0.821528 1.41454 -0.419323 1.581139 0 1.581139 
z
" id="mb76442703e" style="stroke:#b6b6b6;stroke-width:0.5;"/>
    </defs>
    <g clip-path="url(#p1fbda56c2f)">
     <use style="fill:#b6b6b6;stroke:#b6b6b6;stroke-width:0.5;" x="376.256474" xlink:href="#mb76442703e" y="309.482405"/>
     <use style="fill:#b6b6b6;stroke:#b6b6b6;stroke-width:0.5;" x="379.454614" xlink:href="#mb76442703e" y="271.117457"/>
     <use style="fill:#b6b6b6;stroke:#b6b6b6;stroke-width:0.5;" x="402.562216" xlink:href="#mb76442703e" y="260.69937"/>
     <use style="fill:#b6b6b6;stroke:#b6b6b6;stroke-width:0.5;" x="245.738415" xlink:href="#mb76442703e" y="335.480155"/>
     <use style="fill:#b6b6b6;stroke:#b6b6b6;stroke-width:0.5;" x="468.438395" xlink:href="#mb76442703e" y="227.140407"/>
     <use style="fill:#b6b6b6;stroke:#b6b6b6;stroke-width:0.5;" x="398.299595" xlink:href="#mb76442703e" y="266.132099"/>
     <use style="fill:#b6b6b6;stroke:#b6b6b6;stroke-width:0.5;" x="387.135738" xlink:href="#mb76442703e" y="267.192825"/>
     <use style="fill:#b6b6b6;stroke:#b6b6b6;stroke-width:0.5;" x="405.741545" xlink:href="#mb76442703e" y="259.368036"/>
     <use style="fill:#b6b6b6;stroke:#b6b6b6;stroke-width:0.5;" x="375.388492" xlink:href="#mb76442703e" y="266.489804"/>
     <use style="fill:#b6b6b6;stroke:#b6b6b6;stroke-width:0.5;" x="402.672054" xlink:href="#mb76442703e" y="258.634464"/>
     <use style="fill:#b6b6b6;stroke:#b6b6b6;stroke-width:0.5;" x="277.575587" xlink:href="#mb76442703e" y="281.568005"/>
     <use style="fill:#b6b6b6;stroke:#b6b6b6;stroke-width:0.5;" x="492.548758" xlink:href="#mb76442703e" y="258.942727"/>
     <use style="fill:#b6b6b6;stroke:#b6b6b6;stroke-width:0.5;" x="325.787543" xlink:href="#mb76442703e" y="286.469882"/>
     <use style="fill:#b6b6b6;stroke:#b6b6b6;stroke-width:0.5;" x="348.394622" xlink:href="#mb76442703e" y="269.186093"/>
     <use style="fill:#b6b6b6;stroke:#b6b6b6;stroke-width:0.5;" x="395.608491" xlink:href="#mb76442703e" y="171.666937"/>
     <use style="fill:#b6b6b6;stroke:#b6b6b6;stroke-width:0.5;" x="411.132967" xlink:href="#mb76442703e" y="231.619559"/>
    </g>
   </g>
   <g id="PathCollection_6">
    <defs>
     <path d="M 0 1.581139 
C 0.419323 1.581139 0.821528 1.41454 1.118034 1.118034 
C 1.41454 0.821528 1.581139 0.419323 1.581139 0 
C 1.581139 -0.419323 1.41454 -0.821528 1.118034 -1.118034 
C 0.821528 -1.41454 0.419323 -1.581139 0 -1.581139 
C -0.419323 -1.581139 -0.821528 -1.41454 -1.118034 -1.118034 
C -1.41454 -0.821528 -1.581139 -0.419323 -1.581139 0 
C -1.581139 0.419323 -1.41454 0.821528 -1.118034 1.118034 
C -0.821528 1.41454 -0.419323 1.581139 0 1.581139 
z
" id="m4d74f361ad" style="stroke:#dbdbdb;stroke-width:0.5;"/>
    </defs>
    <g clip-path="url(#p1fbda56c2f)">
     <use style="fill:#dbdbdb;stroke:#dbdbdb;stroke-width:0.5;" x="320.066777" xlink:href="#m4d74f361ad" y="325.784235"/>
     <use style="fill:#dbdbdb;stroke:#dbdbdb;stroke-width:0.5;" x="365.76877" xlink:href="#m4d74f361ad" y="335.316231"/>
     <use style="fill:#dbdbdb;stroke:#dbdbdb;stroke-width:0.5;" x="296.264082" xlink:href="#m4d74f361ad" y="263.997037"/>
     <use style="fill:#dbdbdb;stroke:#dbdbdb;stroke-width:0.5;" x="428.546156" xlink:href="#m4d74f361ad" y="173.16364"/>
     <use style="fill:#dbdbdb;stroke:#dbdbdb;stroke-width:0.5;" x="304.961226" xlink:href="#m4d74f361ad" y="261.417546"/>
     <use style="fill:#dbdbdb;stroke:#dbdbdb;stroke-width:0.5;" x="512.131776" xlink:href="#m4d74f361ad" y="268.11725"/>
     <use style="fill:#dbdbdb;stroke:#dbdbdb;stroke-width:0.5;" x="268.051965" xlink:href="#m4d74f361ad" y="327.655298"/>
     <use style="fill:#dbdbdb;stroke:#dbdbdb;stroke-width:0.5;" x="169.660959" xlink:href="#m4d74f361ad" y="250.293512"/>
     <use style="fill:#dbdbdb;stroke:#dbdbdb;stroke-width:0.5;" x="392.020346" xlink:href="#m4d74f361ad" y="225.384543"/>
     <use style="fill:#dbdbdb;stroke:#dbdbdb;stroke-width:0.5;" x="483.638696" xlink:href="#m4d74f361ad" y="195.034853"/>
     <use style="fill:#dbdbdb;stroke:#dbdbdb;stroke-width:0.5;" x="362.711379" xlink:href="#m4d74f361ad" y="231.517741"/>
     <use style="fill:#dbdbdb;stroke:#dbdbdb;stroke-width:0.5;" x="510.065048" xlink:href="#m4d74f361ad" y="360.810727"/>
     <use style="fill:#dbdbdb;stroke:#dbdbdb;stroke-width:0.5;" x="342.684303" xlink:href="#m4d74f361ad" y="293.337806"/>
     <use style="fill:#dbdbdb;stroke:#dbdbdb;stroke-width:0.5;" x="454.454702" xlink:href="#m4d74f361ad" y="285.800466"/>
     <use style="fill:#dbdbdb;stroke:#dbdbdb;stroke-width:0.5;" x="382.454654" xlink:href="#m4d74f361ad" y="252.328"/>
     <use style="fill:#dbdbdb;stroke:#dbdbdb;stroke-width:0.5;" x="484.350285" xlink:href="#m4d74f361ad" y="250.841255"/>
     <use style="fill:#dbdbdb;stroke:#dbdbdb;stroke-width:0.5;" x="389.462909" xlink:href="#m4d74f361ad" y="310.01271"/>
     <use style="fill:#dbdbdb;stroke:#dbdbdb;stroke-width:0.5;" x="408.911504" xlink:href="#m4d74f361ad" y="236.227419"/>
     <use style="fill:#dbdbdb;stroke:#dbdbdb;stroke-width:0.5;" x="362.534894" xlink:href="#m4d74f361ad" y="357.396065"/>
     <use style="fill:#dbdbdb;stroke:#dbdbdb;stroke-width:0.5;" x="597.978299" xlink:href="#m4d74f361ad" y="258.584795"/>
     <use style="fill:#dbdbdb;stroke:#dbdbdb;stroke-width:0.5;" x="277.986479" xlink:href="#m4d74f361ad" y="288.479492"/>
     <use style="fill:#dbdbdb;stroke:#dbdbdb;stroke-width:0.5;" x="192.103591" xlink:href="#m4d74f361ad" y="301.563539"/>
     <use style="fill:#dbdbdb;stroke:#dbdbdb;stroke-width:0.5;" x="556.055756" xlink:href="#m4d74f361ad" y="325.305744"/>
     <use style="fill:#dbdbdb;stroke:#dbdbdb;stroke-width:0.5;" x="583.398448" xlink:href="#m4d74f361ad" y="228.297783"/>
     <use style="fill:#dbdbdb;stroke:#dbdbdb;stroke-width:0.5;" x="212.909478" xlink:href="#m4d74f361ad" y="319.140526"/>
     <use style="fill:#dbdbdb;stroke:#dbdbdb;stroke-width:0.5;" x="246.185487" xlink:href="#m4d74f361ad" y="337.05902"/>
     <use style="fill:#dbdbdb;stroke:#dbdbdb;stroke-width:0.5;" x="174.372089" xlink:href="#m4d74f361ad" y="248.421717"/>
     <use style="fill:#dbdbdb;stroke:#dbdbdb;stroke-width:0.5;" x="229.458907" xlink:href="#m4d74f361ad" y="333.142123"/>
     <use style="fill:#dbdbdb;stroke:#dbdbdb;stroke-width:0.5;" x="544.439155" xlink:href="#m4d74f361ad" y="334.328986"/>
     <use style="fill:#dbdbdb;stroke:#dbdbdb;stroke-width:0.5;" x="358.735888" xlink:href="#m4d74f361ad" y="160.341914"/>
     <use style="fill:#dbdbdb;stroke:#dbdbdb;stroke-width:0.5;" x="533.797374" xlink:href="#m4d74f361ad" y="196.380392"/>
     <use style="fill:#dbdbdb;stroke:#dbdbdb;stroke-width:0.5;" x="489.316403" xlink:href="#m4d74f361ad" y="78.649189"/>
    </g>
   </g>
   <g id="PathCollection_7">
    <defs>
     <path d="M 0 1.581139 
C 0.419323 1.581139 0.821528 1.41454 1.118034 1.118034 
C 1.41454 0.821528 1.581139 0.419323 1.581139 0 
C 1.581139 -0.419323 1.41454 -0.821528 1.118034 -1.118034 
C 0.821528 -1.41454 0.419323 -1.581139 0 -1.581139 
C -0.419323 -1.581139 -0.821528 -1.41454 -1.118034 -1.118034 
C -1.41454 -0.821528 -1.581139 -0.419323 -1.581139 0 
C -1.581139 0.419323 -1.41454 0.821528 -1.118034 1.118034 
C -0.821528 1.41454 -0.419323 1.581139 0 1.581139 
z
" id="m5c401db4ef" style="stroke:#ffffff;stroke-width:0.5;"/>
    </defs>
    <g clip-path="url(#p1fbda56c2f)">
     <use style="fill:#ffffff;stroke:#ffffff;stroke-width:0.5;" x="277.141181" xlink:href="#m5c401db4ef" y="343.664623"/>
     <use style="fill:#ffffff;stroke:#ffffff;stroke-width:0.5;" x="524.401323" xlink:href="#m5c401db4ef" y="382.89385"/>
     <use style="fill:#ffffff;stroke:#ffffff;stroke-width:0.5;" x="383.90965" xlink:href="#m5c401db4ef" y="356.341037"/>
     <use style="fill:#ffffff;stroke:#ffffff;stroke-width:0.5;" x="431.07098" xlink:href="#m5c401db4ef" y="362.325428"/>
     <use style="fill:#ffffff;stroke:#ffffff;stroke-width:0.5;" x="116.327352" xlink:href="#m5c401db4ef" y="291.604833"/>
     <use style="fill:#ffffff;stroke:#ffffff;stroke-width:0.5;" x="225.009269" xlink:href="#m5c401db4ef" y="194.490396"/>
     <use style="fill:#ffffff;stroke:#ffffff;stroke-width:0.5;" x="405.226655" xlink:href="#m5c401db4ef" y="171.094904"/>
     <use style="fill:#ffffff;stroke:#ffffff;stroke-width:0.5;" x="336.478768" xlink:href="#m5c401db4ef" y="172.008261"/>
     <use style="fill:#ffffff;stroke:#ffffff;stroke-width:0.5;" x="183.654718" xlink:href="#m5c401db4ef" y="293.128604"/>
     <use style="fill:#ffffff;stroke:#ffffff;stroke-width:0.5;" x="176.487837" xlink:href="#m5c401db4ef" y="233.291575"/>
     <use style="fill:#ffffff;stroke:#ffffff;stroke-width:0.5;" x="604.55727" xlink:href="#m5c401db4ef" y="310.628332"/>
     <use style="fill:#ffffff;stroke:#ffffff;stroke-width:0.5;" x="557.392232" xlink:href="#m5c401db4ef" y="255.551046"/>
     <use style="fill:#ffffff;stroke:#ffffff;stroke-width:0.5;" x="142.386214" xlink:href="#m5c401db4ef" y="329.231533"/>
     <use style="fill:#ffffff;stroke:#ffffff;stroke-width:0.5;" x="172.546784" xlink:href="#m5c401db4ef" y="309.154625"/>
     <use style="fill:#ffffff;stroke:#ffffff;stroke-width:0.5;" x="209.196456" xlink:href="#m5c401db4ef" y="209.182086"/>
     <use style="fill:#ffffff;stroke:#ffffff;stroke-width:0.5;" x="440.988343" xlink:href="#m5c401db4ef" y="430.006102"/>
     <use style="fill:#ffffff;stroke:#ffffff;stroke-width:0.5;" x="499.719459" xlink:href="#m5c401db4ef" y="184.432648"/>
     <use style="fill:#ffffff;stroke:#ffffff;stroke-width:0.5;" x="223.953643" xlink:href="#m5c401db4ef" y="188.204327"/>
     <use style="fill:#ffffff;stroke:#ffffff;stroke-width:0.5;" x="365.16137" xlink:href="#m5c401db4ef" y="171.590182"/>
     <use style="fill:#ffffff;stroke:#ffffff;stroke-width:0.5;" x="580.238218" xlink:href="#m5c401db4ef" y="209.530749"/>
     <use style="fill:#ffffff;stroke:#ffffff;stroke-width:0.5;" x="250.251352" xlink:href="#m5c401db4ef" y="183.400327"/>
     <use style="fill:#ffffff;stroke:#ffffff;stroke-width:0.5;" x="361.239268" xlink:href="#m5c401db4ef" y="169.08926"/>
     <use style="fill:#ffffff;stroke:#ffffff;stroke-width:0.5;" x="467.965506" xlink:href="#m5c401db4ef" y="381.538461"/>
     <use style="fill:#ffffff;stroke:#ffffff;stroke-width:0.5;" x="442.067509" xlink:href="#m5c401db4ef" y="353.23334"/>
     <use style="fill:#ffffff;stroke:#ffffff;stroke-width:0.5;" x="267.022907" xlink:href="#m5c401db4ef" y="346.62748"/>
     <use style="fill:#ffffff;stroke:#ffffff;stroke-width:0.5;" x="182.285023" xlink:href="#m5c401db4ef" y="331.790977"/>
     <use style="fill:#ffffff;stroke:#ffffff;stroke-width:0.5;" x="477.328656" xlink:href="#m5c401db4ef" y="350.9584"/>
     <use style="fill:#ffffff;stroke:#ffffff;stroke-width:0.5;" x="567.402813" xlink:href="#m5c401db4ef" y="320.467916"/>
     <use style="fill:#ffffff;stroke:#ffffff;stroke-width:0.5;" x="170.064251" xlink:href="#m5c401db4ef" y="255.963394"/>
     <use style="fill:#ffffff;stroke:#ffffff;stroke-width:0.5;" x="621.672648" xlink:href="#m5c401db4ef" y="216.856441"/>
     <use style="fill:#ffffff;stroke:#ffffff;stroke-width:0.5;" x="550.330858" xlink:href="#m5c401db4ef" y="345.447097"/>
     <use style="fill:#ffffff;stroke:#ffffff;stroke-width:0.5;" x="569.959014" xlink:href="#m5c401db4ef" y="213.166756"/>
     <use style="fill:#ffffff;stroke:#ffffff;stroke-width:0.5;" x="412.687295" xlink:href="#m5c401db4ef" y="356.149965"/>
     <use style="fill:#ffffff;stroke:#ffffff;stroke-width:0.5;" x="319.063341" xlink:href="#m5c401db4ef" y="357.157104"/>
     <use style="fill:#ffffff;stroke:#ffffff;stroke-width:0.5;" x="400.604702" xlink:href="#m5c401db4ef" y="166.75113"/>
     <use style="fill:#ffffff;stroke:#ffffff;stroke-width:0.5;" x="549.510667" xlink:href="#m5c401db4ef" y="200.907979"/>
     <use style="fill:#ffffff;stroke:#ffffff;stroke-width:0.5;" x="316.621887" xlink:href="#m5c401db4ef" y="354.911903"/>
     <use style="fill:#ffffff;stroke:#ffffff;stroke-width:0.5;" x="250.963227" xlink:href="#m5c401db4ef" y="188.768714"/>
    </g>
   </g>
   <g id="patch_3">
    <path d="M 90 448.56 
L 90 60.48 
" style="fill:none;stroke:#ffffff;stroke-linecap:square;stroke-linejoin:miter;"/>
   </g>
   <g id="patch_4">
    <path d="M 648 448.56 
L 648 60.48 
" style="fill:none;stroke:#ffffff;stroke-linecap:square;stroke-linejoin:miter;"/>
   </g>
   <g id="patch_5">
    <path d="M 90 448.56 
L 648 448.56 
" style="fill:none;stroke:#ffffff;stroke-linecap:square;stroke-linejoin:miter;"/>
   </g>
   <g id="patch_6">
    <path d="M 90 60.48 
L 648 60.48 
" style="fill:none;stroke:#ffffff;stroke-linecap:square;stroke-linejoin:miter;"/>
   </g>
   <g id="text_14">
    <!-- 4940: N Nodes 101 Loss 1.1073542833328247 -->
    <defs>
     <path d="M 10.984375 1.515625 
L 10.984375 10.5 
Q 14.703125 8.734375 18.5 7.8125 
Q 22.3125 6.890625 25.984375 6.890625 
Q 35.75 6.890625 40.890625 13.453125 
Q 46.046875 20.015625 46.78125 33.40625 
Q 43.953125 29.203125 39.59375 26.953125 
Q 35.25 24.703125 29.984375 24.703125 
Q 19.046875 24.703125 12.671875 31.3125 
Q 6.296875 37.9375 6.296875 49.421875 
Q 6.296875 60.640625 12.9375 67.421875 
Q 19.578125 74.21875 30.609375 74.21875 
Q 43.265625 74.21875 49.921875 64.515625 
Q 56.59375 54.828125 56.59375 36.375 
Q 56.59375 19.140625 48.40625 8.859375 
Q 40.234375 -1.421875 26.421875 -1.421875 
Q 22.703125 -1.421875 18.890625 -0.6875 
Q 15.09375 0.046875 10.984375 1.515625 
z
M 30.609375 32.421875 
Q 37.25 32.421875 41.125 36.953125 
Q 45.015625 41.5 45.015625 49.421875 
Q 45.015625 57.28125 41.125 61.84375 
Q 37.25 66.40625 30.609375 66.40625 
Q 23.96875 66.40625 20.09375 61.84375 
Q 16.21875 57.28125 16.21875 49.421875 
Q 16.21875 41.5 20.09375 36.953125 
Q 23.96875 32.421875 30.609375 32.421875 
z
" id="DejaVuSans-57"/>
     <path d="M 11.71875 12.40625 
L 22.015625 12.40625 
L 22.015625 0 
L 11.71875 0 
z
M 11.71875 51.703125 
L 22.015625 51.703125 
L 22.015625 39.3125 
L 11.71875 39.3125 
z
" id="DejaVuSans-58"/>
     <path id="DejaVuSans-32"/>
     <path d="M 9.8125 72.90625 
L 23.09375 72.90625 
L 55.421875 11.921875 
L 55.421875 72.90625 
L 64.984375 72.90625 
L 64.984375 0 
L 51.703125 0 
L 19.390625 60.984375 
L 19.390625 0 
L 9.8125 0 
z
" id="DejaVuSans-78"/>
     <path d="M 30.609375 48.390625 
Q 23.390625 48.390625 19.1875 42.75 
Q 14.984375 37.109375 14.984375 27.296875 
Q 14.984375 17.484375 19.15625 11.84375 
Q 23.34375 6.203125 30.609375 6.203125 
Q 37.796875 6.203125 41.984375 11.859375 
Q 46.1875 17.53125 46.1875 27.296875 
Q 46.1875 37.015625 41.984375 42.703125 
Q 37.796875 48.390625 30.609375 48.390625 
z
M 30.609375 56 
Q 42.328125 56 49.015625 48.375 
Q 55.71875 40.765625 55.71875 27.296875 
Q 55.71875 13.875 49.015625 6.21875 
Q 42.328125 -1.421875 30.609375 -1.421875 
Q 18.84375 -1.421875 12.171875 6.21875 
Q 5.515625 13.875 5.515625 27.296875 
Q 5.515625 40.765625 12.171875 48.375 
Q 18.84375 56 30.609375 56 
z
" id="DejaVuSans-111"/>
     <path d="M 45.40625 46.390625 
L 45.40625 75.984375 
L 54.390625 75.984375 
L 54.390625 0 
L 45.40625 0 
L 45.40625 8.203125 
Q 42.578125 3.328125 38.25 0.953125 
Q 33.9375 -1.421875 27.875 -1.421875 
Q 17.96875 -1.421875 11.734375 6.484375 
Q 5.515625 14.40625 5.515625 27.296875 
Q 5.515625 40.1875 11.734375 48.09375 
Q 17.96875 56 27.875 56 
Q 33.9375 56 38.25 53.625 
Q 42.578125 51.265625 45.40625 46.390625 
z
M 14.796875 27.296875 
Q 14.796875 17.390625 18.875 11.75 
Q 22.953125 6.109375 30.078125 6.109375 
Q 37.203125 6.109375 41.296875 11.75 
Q 45.40625 17.390625 45.40625 27.296875 
Q 45.40625 37.203125 41.296875 42.84375 
Q 37.203125 48.484375 30.078125 48.484375 
Q 22.953125 48.484375 18.875 42.84375 
Q 14.796875 37.203125 14.796875 27.296875 
z
" id="DejaVuSans-100"/>
     <path d="M 56.203125 29.59375 
L 56.203125 25.203125 
L 14.890625 25.203125 
Q 15.484375 15.921875 20.484375 11.0625 
Q 25.484375 6.203125 34.421875 6.203125 
Q 39.59375 6.203125 44.453125 7.46875 
Q 49.3125 8.734375 54.109375 11.28125 
L 54.109375 2.78125 
Q 49.265625 0.734375 44.1875 -0.34375 
Q 39.109375 -1.421875 33.890625 -1.421875 
Q 20.796875 -1.421875 13.15625 6.1875 
Q 5.515625 13.8125 5.515625 26.8125 
Q 5.515625 40.234375 12.765625 48.109375 
Q 20.015625 56 32.328125 56 
Q 43.359375 56 49.78125 48.890625 
Q 56.203125 41.796875 56.203125 29.59375 
z
M 47.21875 32.234375 
Q 47.125 39.59375 43.09375 43.984375 
Q 39.0625 48.390625 32.421875 48.390625 
Q 24.90625 48.390625 20.390625 44.140625 
Q 15.875 39.890625 15.1875 32.171875 
z
" id="DejaVuSans-101"/>
     <path d="M 44.28125 53.078125 
L 44.28125 44.578125 
Q 40.484375 46.53125 36.375 47.5 
Q 32.28125 48.484375 27.875 48.484375 
Q 21.1875 48.484375 17.84375 46.4375 
Q 14.5 44.390625 14.5 40.28125 
Q 14.5 37.15625 16.890625 35.375 
Q 19.28125 33.59375 26.515625 31.984375 
L 29.59375 31.296875 
Q 39.15625 29.25 43.1875 25.515625 
Q 47.21875 21.78125 47.21875 15.09375 
Q 47.21875 7.46875 41.1875 3.015625 
Q 35.15625 -1.421875 24.609375 -1.421875 
Q 20.21875 -1.421875 15.453125 -0.5625 
Q 10.6875 0.296875 5.421875 2 
L 5.421875 11.28125 
Q 10.40625 8.6875 15.234375 7.390625 
Q 20.0625 6.109375 24.8125 6.109375 
Q 31.15625 6.109375 34.5625 8.28125 
Q 37.984375 10.453125 37.984375 14.40625 
Q 37.984375 18.0625 35.515625 20.015625 
Q 33.0625 21.96875 24.703125 23.78125 
L 21.578125 24.515625 
Q 13.234375 26.265625 9.515625 29.90625 
Q 5.8125 33.546875 5.8125 39.890625 
Q 5.8125 47.609375 11.28125 51.796875 
Q 16.75 56 26.8125 56 
Q 31.78125 56 36.171875 55.265625 
Q 40.578125 54.546875 44.28125 53.078125 
z
" id="DejaVuSans-115"/>
     <path d="M 9.8125 72.90625 
L 19.671875 72.90625 
L 19.671875 8.296875 
L 55.171875 8.296875 
L 55.171875 0 
L 9.8125 0 
z
" id="DejaVuSans-76"/>
     <path d="M 8.203125 72.90625 
L 55.078125 72.90625 
L 55.078125 68.703125 
L 28.609375 0 
L 18.3125 0 
L 43.21875 64.59375 
L 8.203125 64.59375 
z
" id="DejaVuSans-55"/>
     <path d="M 40.578125 39.3125 
Q 47.65625 37.796875 51.625 33 
Q 55.609375 28.21875 55.609375 21.1875 
Q 55.609375 10.40625 48.1875 4.484375 
Q 40.765625 -1.421875 27.09375 -1.421875 
Q 22.515625 -1.421875 17.65625 -0.515625 
Q 12.796875 0.390625 7.625 2.203125 
L 7.625 11.71875 
Q 11.71875 9.328125 16.59375 8.109375 
Q 21.484375 6.890625 26.8125 6.890625 
Q 36.078125 6.890625 40.9375 10.546875 
Q 45.796875 14.203125 45.796875 21.1875 
Q 45.796875 27.640625 41.28125 31.265625 
Q 36.765625 34.90625 28.71875 34.90625 
L 20.21875 34.90625 
L 20.21875 43.015625 
L 29.109375 43.015625 
Q 36.375 43.015625 40.234375 45.921875 
Q 44.09375 48.828125 44.09375 54.296875 
Q 44.09375 59.90625 40.109375 62.90625 
Q 36.140625 65.921875 28.71875 65.921875 
Q 24.65625 65.921875 20.015625 65.03125 
Q 15.375 64.15625 9.8125 62.3125 
L 9.8125 71.09375 
Q 15.4375 72.65625 20.34375 73.4375 
Q 25.25 74.21875 29.59375 74.21875 
Q 40.828125 74.21875 47.359375 69.109375 
Q 53.90625 64.015625 53.90625 55.328125 
Q 53.90625 49.265625 50.4375 45.09375 
Q 46.96875 40.921875 40.578125 39.3125 
z
" id="DejaVuSans-51"/>
    </defs>
    <g transform="translate(199.053 54.48)scale(0.144 -0.144)">
     <use xlink:href="#DejaVuSans-52"/>
     <use x="63.623047" xlink:href="#DejaVuSans-57"/>
     <use x="127.246094" xlink:href="#DejaVuSans-52"/>
     <use x="190.869141" xlink:href="#DejaVuSans-48"/>
     <use x="254.492188" xlink:href="#DejaVuSans-58"/>
     <use x="288.183594" xlink:href="#DejaVuSans-32"/>
     <use x="319.970703" xlink:href="#DejaVuSans-78"/>
     <use x="394.775391" xlink:href="#DejaVuSans-32"/>
     <use x="426.5625" xlink:href="#DejaVuSans-78"/>
     <use x="501.367188" xlink:href="#DejaVuSans-111"/>
     <use x="562.548828" xlink:href="#DejaVuSans-100"/>
     <use x="626.025391" xlink:href="#DejaVuSans-101"/>
     <use x="687.548828" xlink:href="#DejaVuSans-115"/>
     <use x="739.648438" xlink:href="#DejaVuSans-32"/>
     <use x="771.435547" xlink:href="#DejaVuSans-49"/>
     <use x="835.058594" xlink:href="#DejaVuSans-48"/>
     <use x="898.681641" xlink:href="#DejaVuSans-49"/>
     <use x="962.304688" xlink:href="#DejaVuSans-32"/>
     <use x="994.091797" xlink:href="#DejaVuSans-76"/>
     <use x="1049.789062" xlink:href="#DejaVuSans-111"/>
     <use x="1110.970703" xlink:href="#DejaVuSans-115"/>
     <use x="1163.070312" xlink:href="#DejaVuSans-115"/>
     <use x="1215.169922" xlink:href="#DejaVuSans-32"/>
     <use x="1246.957031" xlink:href="#DejaVuSans-49"/>
     <use x="1310.580078" xlink:href="#DejaVuSans-46"/>
     <use x="1342.367188" xlink:href="#DejaVuSans-49"/>
     <use x="1405.990234" xlink:href="#DejaVuSans-48"/>
     <use x="1469.613281" xlink:href="#DejaVuSans-55"/>
     <use x="1533.236328" xlink:href="#DejaVuSans-51"/>
     <use x="1596.859375" xlink:href="#DejaVuSans-53"/>
     <use x="1660.482422" xlink:href="#DejaVuSans-52"/>
     <use x="1724.105469" xlink:href="#DejaVuSans-50"/>
     <use x="1787.728516" xlink:href="#DejaVuSans-56"/>
     <use x="1851.351562" xlink:href="#DejaVuSans-51"/>
     <use x="1914.974609" xlink:href="#DejaVuSans-51"/>
     <use x="1978.597656" xlink:href="#DejaVuSans-51"/>
     <use x="2042.220703" xlink:href="#DejaVuSans-50"/>
     <use x="2105.84375" xlink:href="#DejaVuSans-56"/>
     <use x="2169.466797" xlink:href="#DejaVuSans-50"/>
     <use x="2233.089844" xlink:href="#DejaVuSans-52"/>
     <use x="2296.712891" xlink:href="#DejaVuSans-55"/>
    </g>
   </g>
   <g id="legend_1">
    <g id="patch_7">
     <path d="M 571.576563 171.226875 
L 641 171.226875 
Q 643 171.226875 643 169.226875 
L 643 67.48 
Q 643 65.48 641 65.48 
L 571.576563 65.48 
Q 569.576563 65.48 569.576563 67.48 
L 569.576563 169.226875 
Q 569.576563 171.226875 571.576563 171.226875 
z
" style="fill:#bf00bf;opacity:0.8;stroke:#cccccc;stroke-linejoin:miter;stroke-width:0.5;"/>
    </g>
    <g id="PathCollection_8">
     <g>
      <use style="fill:#242424;stroke:#242424;stroke-width:0.5;" x="583.576563" xlink:href="#m354df17e70" y="74.453438"/>
     </g>
    </g>
    <g id="text_15">
     <!-- Layer 0 -->
     <defs>
      <path d="M 34.28125 27.484375 
Q 23.390625 27.484375 19.1875 25 
Q 14.984375 22.515625 14.984375 16.5 
Q 14.984375 11.71875 18.140625 8.90625 
Q 21.296875 6.109375 26.703125 6.109375 
Q 34.1875 6.109375 38.703125 11.40625 
Q 43.21875 16.703125 43.21875 25.484375 
L 43.21875 27.484375 
z
M 52.203125 31.203125 
L 52.203125 0 
L 43.21875 0 
L 43.21875 8.296875 
Q 40.140625 3.328125 35.546875 0.953125 
Q 30.953125 -1.421875 24.3125 -1.421875 
Q 15.921875 -1.421875 10.953125 3.296875 
Q 6 8.015625 6 15.921875 
Q 6 25.140625 12.171875 29.828125 
Q 18.359375 34.515625 30.609375 34.515625 
L 43.21875 34.515625 
L 43.21875 35.40625 
Q 43.21875 41.609375 39.140625 45 
Q 35.0625 48.390625 27.6875 48.390625 
Q 23 48.390625 18.546875 47.265625 
Q 14.109375 46.140625 10.015625 43.890625 
L 10.015625 52.203125 
Q 14.9375 54.109375 19.578125 55.046875 
Q 24.21875 56 28.609375 56 
Q 40.484375 56 46.34375 49.84375 
Q 52.203125 43.703125 52.203125 31.203125 
z
" id="DejaVuSans-97"/>
      <path d="M 32.171875 -5.078125 
Q 28.375 -14.84375 24.75 -17.8125 
Q 21.140625 -20.796875 15.09375 -20.796875 
L 7.90625 -20.796875 
L 7.90625 -13.28125 
L 13.1875 -13.28125 
Q 16.890625 -13.28125 18.9375 -11.515625 
Q 21 -9.765625 23.484375 -3.21875 
L 25.09375 0.875 
L 2.984375 54.6875 
L 12.5 54.6875 
L 29.59375 11.921875 
L 46.6875 54.6875 
L 56.203125 54.6875 
z
" id="DejaVuSans-121"/>
      <path d="M 41.109375 46.296875 
Q 39.59375 47.171875 37.8125 47.578125 
Q 36.03125 48 33.890625 48 
Q 26.265625 48 22.1875 43.046875 
Q 18.109375 38.09375 18.109375 28.8125 
L 18.109375 0 
L 9.078125 0 
L 9.078125 54.6875 
L 18.109375 54.6875 
L 18.109375 46.1875 
Q 20.953125 51.171875 25.484375 53.578125 
Q 30.03125 56 36.53125 56 
Q 37.453125 56 38.578125 55.875 
Q 39.703125 55.765625 41.0625 55.515625 
z
" id="DejaVuSans-114"/>
     </defs>
     <g transform="translate(601.576563 77.078438)scale(0.1 -0.1)">
      <use xlink:href="#DejaVuSans-76"/>
      <use x="55.712891" xlink:href="#DejaVuSans-97"/>
      <use x="116.992188" xlink:href="#DejaVuSans-121"/>
      <use x="176.171875" xlink:href="#DejaVuSans-101"/>
      <use x="237.695312" xlink:href="#DejaVuSans-114"/>
      <use x="278.808594" xlink:href="#DejaVuSans-32"/>
      <use x="310.595703" xlink:href="#DejaVuSans-48"/>
     </g>
    </g>
    <g id="PathCollection_9">
     <g>
      <use style="fill:#494949;stroke:#494949;stroke-width:0.5;" x="583.576563" xlink:href="#m1e37259637" y="89.131563"/>
     </g>
    </g>
    <g id="text_16">
     <!-- Layer 1 -->
     <g transform="translate(601.576563 91.756563)scale(0.1 -0.1)">
      <use xlink:href="#DejaVuSans-76"/>
      <use x="55.712891" xlink:href="#DejaVuSans-97"/>
      <use x="116.992188" xlink:href="#DejaVuSans-121"/>
      <use x="176.171875" xlink:href="#DejaVuSans-101"/>
      <use x="237.695312" xlink:href="#DejaVuSans-114"/>
      <use x="278.808594" xlink:href="#DejaVuSans-32"/>
      <use x="310.595703" xlink:href="#DejaVuSans-49"/>
     </g>
    </g>
    <g id="PathCollection_10">
     <g>
      <use style="fill:#6d6d6d;stroke:#6d6d6d;stroke-width:0.5;" x="583.576563" xlink:href="#me48a1e0d9e" y="103.809687"/>
     </g>
    </g>
    <g id="text_17">
     <!-- Layer 2 -->
     <g transform="translate(601.576563 106.434687)scale(0.1 -0.1)">
      <use xlink:href="#DejaVuSans-76"/>
      <use x="55.712891" xlink:href="#DejaVuSans-97"/>
      <use x="116.992188" xlink:href="#DejaVuSans-121"/>
      <use x="176.171875" xlink:href="#DejaVuSans-101"/>
      <use x="237.695312" xlink:href="#DejaVuSans-114"/>
      <use x="278.808594" xlink:href="#DejaVuSans-32"/>
      <use x="310.595703" xlink:href="#DejaVuSans-50"/>
     </g>
    </g>
    <g id="PathCollection_11">
     <g>
      <use style="fill:#929292;stroke:#929292;stroke-width:0.5;" x="583.576563" xlink:href="#mb594ef03fc" y="118.487813"/>
     </g>
    </g>
    <g id="text_18">
     <!-- Layer 3 -->
     <g transform="translate(601.576563 121.112813)scale(0.1 -0.1)">
      <use xlink:href="#DejaVuSans-76"/>
      <use x="55.712891" xlink:href="#DejaVuSans-97"/>
      <use x="116.992188" xlink:href="#DejaVuSans-121"/>
      <use x="176.171875" xlink:href="#DejaVuSans-101"/>
      <use x="237.695312" xlink:href="#DejaVuSans-114"/>
      <use x="278.808594" xlink:href="#DejaVuSans-32"/>
      <use x="310.595703" xlink:href="#DejaVuSans-51"/>
     </g>
    </g>
    <g id="PathCollection_12">
     <g>
      <use style="fill:#b6b6b6;stroke:#b6b6b6;stroke-width:0.5;" x="583.576563" xlink:href="#mb76442703e" y="133.165938"/>
     </g>
    </g>
    <g id="text_19">
     <!-- Layer 4 -->
     <g transform="translate(601.576563 135.790938)scale(0.1 -0.1)">
      <use xlink:href="#DejaVuSans-76"/>
      <use x="55.712891" xlink:href="#DejaVuSans-97"/>
      <use x="116.992188" xlink:href="#DejaVuSans-121"/>
      <use x="176.171875" xlink:href="#DejaVuSans-101"/>
      <use x="237.695312" xlink:href="#DejaVuSans-114"/>
      <use x="278.808594" xlink:href="#DejaVuSans-32"/>
      <use x="310.595703" xlink:href="#DejaVuSans-52"/>
     </g>
    </g>
    <g id="PathCollection_13">
     <g>
      <use style="fill:#dbdbdb;stroke:#dbdbdb;stroke-width:0.5;" x="583.576563" xlink:href="#m4d74f361ad" y="147.844063"/>
     </g>
    </g>
    <g id="text_20">
     <!-- Layer 5 -->
     <g transform="translate(601.576563 150.469063)scale(0.1 -0.1)">
      <use xlink:href="#DejaVuSans-76"/>
      <use x="55.712891" xlink:href="#DejaVuSans-97"/>
      <use x="116.992188" xlink:href="#DejaVuSans-121"/>
      <use x="176.171875" xlink:href="#DejaVuSans-101"/>
      <use x="237.695312" xlink:href="#DejaVuSans-114"/>
      <use x="278.808594" xlink:href="#DejaVuSans-32"/>
      <use x="310.595703" xlink:href="#DejaVuSans-53"/>
     </g>
    </g>
    <g id="PathCollection_14">
     <g>
      <use style="fill:#ffffff;stroke:#ffffff;stroke-width:0.5;" x="583.576563" xlink:href="#m5c401db4ef" y="162.522187"/>
     </g>
    </g>
    <g id="text_21">
     <!-- Layer 6 -->
     <g transform="translate(601.576563 165.147187)scale(0.1 -0.1)">
      <use xlink:href="#DejaVuSans-76"/>
      <use x="55.712891" xlink:href="#DejaVuSans-97"/>
      <use x="116.992188" xlink:href="#DejaVuSans-121"/>
      <use x="176.171875" xlink:href="#DejaVuSans-101"/>
      <use x="237.695312" xlink:href="#DejaVuSans-114"/>
      <use x="278.808594" xlink:href="#DejaVuSans-32"/>
      <use x="310.595703" xlink:href="#DejaVuSans-54"/>
     </g>
    </g>
   </g>
  </g>
 </g>
 <defs>
  <clipPath id="p1fbda56c2f">
   <rect height="388.08" width="558" x="90" y="60.48"/>
  </clipPath>
 </defs>
</svg>
